<?xml version='1.0' encoding='utf-8'?>
<svg xmlns="http://www.w3.org/2000/svg" enable-background="new 0 0 5000 2549.8047" version="1.1" viewBox="0 0 5e3 2549.8"> <path d="m4932.2 2174.1c-143.12-117.6-397.69-101.71-688.96-106.5-23.467-0.3862-3.0356-20.217 0.5464-42.754 5.5205-34.728 1.8306-68.784-6.4795-102.63-7.0713-28.806-20.969-54.105-38.824-77.462-17.121-22.396-3.2959-16.686 35.376-30.471 119.51-42.6 235.64-51.823 352.68-4.2472 13.69 5.5648 27.918 13.283 35.11 26.616 11.272 20.898 23.273 41.23 36.227 61.091 4.98 7.6364 7.3638 16.704 2.2588 25.06-9.0332 14.782-21.164 26.727-38.241 31.648-14.697 4.2347-26.389-1.5459-35.509-13.498-8.8218-11.56-22.04 0.4635-13.443 11.137 6.9849 8.6709 9.5962 19.351 14.808 28.755 8.8047 15.886 22.298 25.452 40.882 25.857 9.437 0.2059 19.187 0.1764 28.31-1.8903 31.107-7.0474 58.157-21.154 68.455-53.676 9.4028-29.693 0.5454-56.161-21.612-77.932-12.514-12.296-20.338-27.711-24.155-44.024-17.391-74.339-103.01-85.841-139.59-98.028-76.252-25.402-153.71-21.104-231.27-11.204-58.361 7.4503-112.21 30.066-164.69 55.635-9.5498 4.6519-16.488 4.8021-26.041-0.7839-65.984-38.582-104.12-46.712-171.88-58.084-81.524-13.683-80.908-74.815-142.98-112.91-84.28-51.726-255.41-29.573-269.73 49.353-4.6765 25.771 15.056 53.38 43.394 63.538 21.271 7.6244 28.606 1.6582 25.049-20.372-6.5857-40.778-2.2021-52.219 27.748-70.47 5.1313-3.1271 10.902-5.481 16.666-7.2489 35.124-10.771 68.047-2.8975 100.42 11.646 27.633 12.415 43.496 33.133 48.748 62.847 3.3896 19.176 12.663 35.251 27.032 48.869 68.235 64.669 192.26 38.535 245.92 75.916-98.63 33.377-131.13 49.013-181.91 56.474-48.921 7.1888-97.925 13.596-147.54 6.2693-72.837-10.757-188.52-24.464-226.57-40.989-94.477-41.03-190.44-78.077-290.94-101.96-67.886-16.129-135.98-31.147-206.11-33.54-97.581-3.3304-195-3.5833-290.86 18.952-46.058 10.829-92.348 21.287-135.14 42.454-7.0972 3.511-9.9851 0.6445-12.823-4.4796-5.2483-9.4775 8.9758-68.32 7.3892-104.55-5.7131-130.45-7.3298-217.25 50.045-300 3.8799-5.5964 8.7822-10.622 15.282-13.048 86.435-32.261 104.36-21.003 196.45 5.9684 174.68 51.16 278.83 139.5 466.58 101.78 66.324-13.326 103.31-82.354 89.945-140.45-42.902-186.48-220.28-331.12-310.18-493.51-35.362-63.881-55.881-131.84-66.156-203.43-2.657-18.514 1.4626-36.57 8.5176-53.609 4.627-11.174 16.257-14.533 28.069-17.567-26.232-24.859-34.374-20.305-54.571 1.8056-7.4031 8.1041-10.974 18.606-13.992 29.09-9.1741 31.88-9.4016 64.4-3.8699 96.613 28.317 164.9 123.2 259.46 173.15 436.79 12.117 43.02 14.47 85.85-5.1897 128.47-19.301 41.843-48.87 68.542-95.916 69.361-110.61 1.9235-132.87-22.91-199.59-30.142-23.884-2.5889-84.1-30.807-163.75-6.9447-49.325 14.778-89.342 41.143-113.69 88.122-2.3491 4.5325-3.1438 11.973-13.101 11.719 5.6248-30.33 3.5007-60.583 24.581-86.691 22.436-27.787 48.918-46.266 83.999-52.019 20.7-3.3939 41.448-6.9938 62.322-8.7196 36.36-3.0059 72.724-8.9874 109.36-3.2902 50.272 7.8186 122.01 14.728 160.45-18.99 31.539-27.662 29.124-63.506 19.576-99.564-7.1724-27.089-23.611-50.099-35.837-74.975-66.023-134.33-122.19-293.52-149.07-398.93-15.059-59.048-22.589-119.6-32.52-179.63-6.7251-40.653-15.395-81.396-12.385-122.99 2.345-32.411 7.0754-64.652 9.3511-97.066 1.8235-25.977 11.915-48.608 25.369-69.864 7.4807-11.818 16.082-23.321 30.611-28.491 34.277-12.197 68.847-12.139 103.74-3.6477 49.746 12.105 127.6 45.677 204.18-34.502 11.212-11.739 16.374-26.96 17.947-42.374 1.5447-15.14-5.2214-29.126-14.364-41.279-3.5703-4.7456-9.4954-5.8809-14.605-2.7424-4.2849 2.6323-2.8186 7.3213-0.6023 10.844 7.5913 12.068 1.177 20.362-7.146 28.317-59.443 56.812-180.88 43.444-245.75 48.274-98.838 7.3593-127.48 98.036-133.38 196.99-2.627 44.062 4.3286 87.716 7.7986 131.55 21.802 275.42 114.42 495.72 99.31 644.61-5.3914 53.128-26.097 79.645-73.667 99.59-73.313 30.739-153.73 10.824-214.15 89.076-2.0364 2.6372-3.751 7.8676-9.4888 4.986 0.5894-7.6982 4.2573-14.062 8.9966-19.737 69.431-83.144 137.81-78.049 195.84-141.38 19.938-21.758 27.025-45.263 26.155-73.742-1.1604-37.967-13.349-71.625-35.08-102.13-24.38-34.221-46.657-69.672-66.803-106.58-11.023-20.194-13.685-40.668-9.0854-62.765 1.0764-5.1703 7.9622-12.71-0.344-15.399-9.1492-2.9624-12.551 11.144-16.311 20.015-16.283 38.413-6.1511 75.111 10.106 109.88 15.33 32.79 24.419 67.43 35.59 101.45 3.9412 12.003 6.7136 25.011 4.9536 38.055-13.496 100.04-79.517 128.85-135.14 193.27-1.9758 2.2877-4.2505 5.4291-9.3333 2.8757-0.1653-9.6584 6.0923-17.14 10.327-25.263 18.492-35.47 35.458-71.334 43.48-111.1 17.513-86.82 31.473-163.29 10.241-294.17-4.9824-30.712-9.1528-61.539-15.963-91.938-1.1006-4.9128-3.5938-13.143 2.7764-14.368 15.77-3.0312 10.922-12.402 8.2378-21.298-9.3821-31.094-18.961-62.13-28.566-93.156-2.9067-9.3876-7.1389-22.101-16.682-19.72-6.5959 1.6451-4.938 7.4144-3.6948 11.778 11.915 41.813 15.597 85.184 24.356 127.58 16.044 77.66 30.458 155.32 28.161 235.35-2.3506 81.882-12.17 161.91-46.589 237.27-2.2437 4.9126-1.9778 12.288-9.772 13.682-7.3401-18.477 38.263-154.95 17.728-380.37-0.6086-6.6795-1.9331-13.87 5.8242-17.835 9.5461-4.8796 7.7422-13.314 6.6125-21.315-2.9404-20.831-8.7395-40.999-15.2-60.947-3.7273-11.508-2.5425-24.532-10.558-34.673-2.8486-3.6038-5.5535-8.8453-11.19-6.5795-5.7166 2.2979-4.0371 8.1169-3.2046 12.45 2.4248 12.617 6.6692 24.979 8.0906 37.677 14.336 128.08 22.34 256.26 3.5217 384.65-7.3589 50.206-10.228 101.01-20.389 150.85-1.4702 7.2124-2.1838 14.452-9.3501 18.898-11-11.86 6.0503-13.275 8.8818-73.522 9.6904-206.17 14.326-236.79 11.858-296.12-5.7734-138.8-15.294-183.46-25.503-284.82-3.054-30.317-11.057-59.902-12.754-90.401-0.1812-3.2597-1.7546-6.5212-3.0723-9.6159-1.2952-3.0419-2.7925-6.9521-6.9106-6.0724-5.7761 1.2338-3.7827 6.0307-3.3469 9.8261 52.575 457.92 30.394 403.13 24.367 574.9-1.5906 45.323 2.5601 90.778-3.2385 135.99-0.8223 6.4108-0.5762 13.27-8.5476 20.376 0-79.902 1.3499-49.051 2.5007-89.485 1.8276-64.195 3.2786-266.69-3.4531-363.53-2.9551-42.516-7.4871-84.922-11.342-127.38-6.1223-67.426-3.1338-90.513-19.577-162.98-0.5588-2.4636-2.5837-4.695-5.9241-4.2963-3.7576 0.4485-3.9802 3.6279-3.8848 6.0399 0.3191 8.1075 0.4063 16.338 1.9282 24.263 7.8123 40.686 5.7869 74.462 13.106 178.19 2.668 37.813 6.4731 75.545 9.1848 113.36 5.8154 81.088 4.4255 162.41 6.0149 243.6 3.1272 159.78-10.194 197.96-3.335 233.41 4.6863 24.22-0.2681 47.6-2.7566 76.003-8.2744-41.161-8.4883-78.594-17.929-114.67-19.987-76.38-36.738-155.92-48.407-232.12-40.122-262.01-10.467-494.48-10.327-508.34 0.0444-4.4441 1.0713-9.8566-5.7957-11.328-4.6995 2.5621-5.3372 7.3506-5.9021 12.028-5.4375 45.041-12.305 90.041-12.894 135.44-1.1414 87.964-4.4297 175.88 4.6519 263.85 5.834 56.511 5.8345 113.67 18.497 169.4 7.0527 31.042 27.778 114.38 27.783 114.17-7.8101-4.5421-9.5498-12.935-12.579-20.316-29.417-71.677-51.077-145.13-60.057-222.68-8.3284-71.918-25.33-199.76 1.7563-267.61 3.7898-9.494 9.1042-27.895-0.5444-31.637-7.9551-3.0848-12.079 1.8486-15.917 8.6193-20.64 36.409-22.068 77.538-28.553 117.39-0.9167 5.6333 1.8218 11.164 8.6179 11.583 9.6375 0.5944 10.28 7.2429 10.441 14.234 0.8743 37.98 5.8843 75.605 9.5317 113.35 12.399 128.31 30.714 161.11 87.374 315.61 4.3157 11.769 8.9697 23.505 8.9832 39.959-30.54-28.494-25.948-44.243-42.599-81.902-29.606-66.96-56.097-134.72-70.5-207.07-9.2471-46.45-20.785-92.301-24.353-139.79-7.0164-93.374-2.9014-185.3 31.285-273.88 2.01-5.2087 4.1401-10.85-1.7175-14.526-5.7935-3.6361-10.243 0.296-13.858 4.666-30.136 36.431-29.477 76.548-49.66 123.47-2.76 6.4162-4.6719 13.851 0.7122 19.11 5.7859 5.6503 10.943-1.8804 16.474-3.2146 1.1172-0.2697 2.46 0.394 5.4185 0.9515-10.061 88.779-0.0415 176.24 17.663 263.61 17.804 87.86 51.565 169.66 88.341 251.1-12.067-7.744-22.141-16.477-31.732-25.711-23.686-22.804-52.495-38.193-80.229-54.933-42.505-25.655-64.274-63.943-66.601-111.96-5.4473-112.42 71.048-185.52 38.08-256.5-2.749-5.9186-6.0359-11.654-13.514-8.2903-6.7615 3.0421-4.5134 8.7888-1.7834 13.828 4.48 8.2705 4.1689 16.969 2.1587 25.719-3.3501 14.583-7.4585 29.114-15.886 41.545-16.019 23.631-27.46 49.764-41.907 74.251-23.299 39.492-39.178 82.161-44.88 127.57-4.8767 38.834 2.3528 74.432 32.718 104.2 25.392 24.888 55.217 37.24 88.734 39.626 33.722 2.4011 62.775 15.463 91.597 30.627 15.071 7.9293 27.72 18.938 38.844 31.751-13.953-5.7635-25.159-15.407-39.134-20.914-112.78-44.442-164.94-11.133-234.2-25.592-35.68-7.4474-64.163-24.829-74.79-62.713-41.147-146.67 20.088-389.9 21.702-594.09 1.2085-152.75 21.092-200.89-34.853-360.71-9.0701-25.912-24.001-48.675-53.198-57.13-75.622-21.9-85.831 15.891-172.31 8.3181-36.424-3.1895-64.233-22.3-82.858-54.086-13.775-23.511-2.3408-39.915-13.4-40.239-2.9952-0.0873-4.7808 2.3698-5.6733 4.949-7.5233 21.737-16.394 43.396-8.4752 67.015 17.169 51.207 74.498 81.527 126.35 67.585 32.02-8.6094 64.095-17.227 96.519-24.074 46.422-9.8018 84.714 13.27 97.53 49.293 8.3677 23.516 12.419 48.425 16.443 73.199 12.796 78.781 17.5 226.39-6.9885 400.67-29.515 210.05-127.38 328.9-135.68 512.44-2.6133 57.849 38.736 95.666 89.364 96.535 101.82 1.7498 148.57-31.453 252.04-40.08 24.76-2.0643 49.617-8.4686 74.704-2.0129 44.286 11.396 85.802 27.292 119.96 60.025 16.913 16.21 24.223 36.871 35.263 55.899 0.7297 1.2573-0.5752 3.6952-1.2681 7.3448-13.083-12.402-25.426-23.757-39.748-32.558-50.899-31.276-78.821-49.805-200.15-30.958-126.38 19.631-250.69 69.145-370.16 35.59-32.888-9.2366-49.832-30.845-56.879-59.319-20.024-80.91 2.9287-166.45 23.923-256.17 23.069-98.59 66.7-195.25 94.606-356.62 4.9971-28.896 0.1719-56.915-8.6199-84.033-5.759-17.763-19.819-29.096-39.058-31.169-14.469-1.5593-30.628 9.515-37.176 23.799-2.6288 5.7344-5.0763 12.351 1.1432 16.553 13.248 8.9512 9.7849-28.166 30.624-8.5643 12.111 11.392 18.672 24.892 18.574 41.281-0.1187 19.621 1.0175 39.444-3.1798 58.752-14.117 64.949-32.7 128.73-59.365 189.57-42.845 97.764-142.64 196.77-187.58 256.48-34.332 45.611-60.547 95.831-81.845 149-19.266 48.093-30.602 96.393-23.077 148.52 5.3361 36.965 40.842 82.582 83.661 84.367 176.42 7.3549 267.83-44.224 352.21-73.578 229.08-79.697 353.89-143.69 453.46-58.628 37.257 31.828 59.24 70.592 66.673 117.17 13.02 81.599 9.0095 163.26-5.9165 244.42-0.5686 3.0923-0.4719 6.782-4.063 8.5966-3.9973 0.3468-5.7871-2.9851-8.3762-4.9664-62.72-48-93.987-45.35-148.5-51.94-135.46-16.377-202.52 5.9312-307.07 29.367-62.923 14.104-123.33 36.316-183.58 58.762-13.8 5.1405-25.455 5.7297-38.316-2.314-25.296-15.82-52.62-26.97-82.205-32.272-15.901-2.8494-31.537-7.8777-47.529-9.3477-24.858-2.2853-51.034-9.0073-74.65-1.991-43.177 12.828-86.867 26.124-123.13 55.509-13.564 10.99-27.441 22.054-43.573 29.448-36.008 16.504-69.576 38.59-111.77 39.222-60.472 0.9058-94.926 27.799-170.5 56.058-61.243 22.902-120.7 18.75-175.77-14.345-33.079-19.88-65.554-40.389-100.52-56.899-27.364-12.922-50.826-30.515-65.987-57.954-20.902-37.829-51.133-32.217-87.419-70.593-12.142-12.841-27.402-22.612-43.904-28.807-45.166-16.956-89.618-20.072-131.42 10.364-14.301 10.414-30.39 17.422-47.36 22.827-62.488 19.9-95.491 65.047-108.1 127.5-11.697 57.958 27.648 98.66 71.813 110.97 29.962 8.3549 65.423-6.8337 77.271-33.746 3.5707-8.1113 6.3834-16.501 2.4708-25.46-1.4637-3.3521-3.8417-5.7578-7.4782-5.9869-11.065-0.6974-2.9052 12.197-16.461 20.461-25.818 15.739-63.911 3.4229-75.534-24.769-16.347-39.648 5.6618-87.643 46.709-99.631 18.248-5.3298 31.59-15.002 38.945-32.48 3.6203-8.6029 10.092-13.819 17.917-18.525 14.489-8.7146 29.553-8.3529 45.197-5.144 49.954 10.247 90.153 36.118 120.51 76.761 23.206 31.066 46.406 61.887 81.419 80.902 19.929 10.823 36.742 25.438 51.382 42.492 19.448 22.654 41.248 43.023 61.622 64.768 4.7238 5.0415 10.356 8.4502 16.515 11.507 43.332 21.505 87.646 24.881 133.98 10.149 19.281-6.1307 39.546-6.9053 60.218-5.4824 26.79 1.8441 53.509-4.0831 74.77-20.622 28.613-22.258 58.366-28.749 93.149-19.328 46.702 12.65 80.912-7.6985 116.9-40.259 73.406-66.418 120.67-111.09 235.98-95.565 9.9635 1.3412 20.783 4.0763 29.592 13.77-15.972 7.5894-29.993 16.042-45.144 21.135-88.992 29.914-222.71 113.67-344.62 158.68-150.17 55.441-243.85 88.169-328.28 93.801-84.966 5.6675-168.99-2.4316-252.44-18.87-34.52-6.8-68.95-13.49-102.98-22.706-53.405-14.465-191.94-50.437-246.77-44.945-46.206 4.6285-92.766 6.1769-138.26 19.954-173.92 52.664-155.21 141.68-216.95 179.96-28.979 17.97-47.074 151.09 6.3823 218.02 47.302 59.22 112.2 80.07 184.56 81.781 107.69 2.5457 209-62.267 262.35-27.79 14.838 9.5879 15.483 22.815 2.6149 34.883-3.9301 3.6853-8.1847 7.2832-11.139 11.693-4.79 7.1501-2.3293 11.889 6.428 11.46 18.891-0.9272 38.034-0.563 56.153-7.2576 25.816-9.5383 39.274-39.563 24.964-60.617-31.862-46.876-70.581-24.948-106.26-22.85-89.077 5.2341-131.55 28.563-257.9 1.989-21.084-4.4341-42.737-12.406-56.66-29.692-31.831-39.522-43.099-83.438-22.57-132.67 5.5547-13.321 13.291-25.103 20.84-37.081 23.33-37.014 5.4402-45.05 20.694-75.108 11.778-23.208 27.178-41.756 49.535-56.824 45.04-30.355 91.661-51.875 147.48-47.134 13.468 1.1438 27.217-0.5012 40.589 1.145 28.006 3.4475 57.299 2.1912 82.952 16.279 64.717 35.541 132.72 64.412 198.2 98.414 19.111 9.9233 39.844 17.165 61.818 18.939 40.7 3.2869 79.729-3.5459 115.68-22.836 59.214-31.77 121.24-48.668 189.03-42.959 19.422 1.636 39.25 2.2146 58.858-0.0928 90.669-10.669 177.85-31.325 258.65-77.01 249.6-141.13 269.34-156.96 387.98-203.19 25.556-9.9578 24.678 6.5503 78.526 43.879 22.629 15.687 23.117 16.101 1.1393 33.339-1.598 1.2534-3.0885 2.6627-4.7716 3.7864-101.99 68.103-203.29 159.13-326.58 226.53-118.73 64.901-257.14 123.72-394.11 127.86-22.399 0.6768-42.958-4.9841-62.437-15.082-24.34-12.617-34.068-40.116-22.885-63.237 2.5647-5.3022 3.9293-12.859 11.487-12.515 6.5074 0.2961 10.16 6.2703 13.177 11.56 1.6323 2.8613 1.7538 6.5457 3.1387 9.5945 6.6154 14.563 17.446 6.124 29.612 1.5144 11.328-4.292 17.596-12.651 18.271-24.467 0.7213-12.628-7.481-19.711-17.814-24.705-24.303-11.746-46.46-3.5737-67.162 8.9741-21.137 12.81-37.12 33.385-62.798 39.75-9.8832 2.4492-17.943 11.471-21.033 20.946-9.9274 30.444-13.386 62.33 4.5241 90.369 23.384 36.611 59.426 56.282 102.04 63.288 42.446 6.979 84.178 5.9543 126.88-3.4375 110.61-24.331 196.62-60.787 359.57-168.23 27.092-17.863 56.484-32.506 82.504-51.397 75.984-55.166 215.76-173.91 286.81-235.79 17.45-15.199 35.396-26.19 59.483-24.406 5.1582 0.382 10.518-2.1743 15.805-3.2806 119.7-25.043 173.77-120.9 290.47-148.35 17.727-4.17 34.57-12.359 53.11-12.71 88.742-1.6792 131.38 2.0792 165.25 21.525 15.04 8.6372 14.698 11.31 0.1782 21.437-103.89 72.456-191.23 173.18-160.78 295.14 13.327 53.381 48.694 84.228 97.765 102.39 13.92 5.1516 28.56 8.1357 43.582 9.363 18.565 1.5164 33.78 7.8296 38.99 28.798 8.0779 32.511 42.671 73.723 17.497 132.19-11.357 26.374 7.0862 44.494-45.798 83.587-11.506 8.5046-13.469 14.409-6.45 27.134 11.206 20.317 28.743 30.96 51.88 28.536 38.415-4.0261 73.454-17.293 103.87-41.854 31.977-25.822 52.025-59.852 69.252-96.393 12.026-25.509 16.698-51.146 10.45-78.765-13.403-59.242-44.319-83.82-94.961-95.548-11.665-2.7017-18.616-9.6306-23.049-20.575-15.118-37.329-16.62-75.119-3.2734-112.97 33.354-94.588 53.621-126.42 53.463-181.89-0.0437-15.338-0.2813-15.582 16.166-12.663 103.73 18.411 294.63 44.492 572.23 198.32 42.104 23.33 85.943 43.016 128.79 64.768 84.851 43.081 163.26 87.066 358.24 146.33 46.851 14.241 95.628 17.548 144.69 14.956 32.045-1.6929 62.987-8.7024 93.373-18.278 78.299-24.674 185.71-59.6 237.73-124.42 12.409-15.462 27.928-20.367 46.916-14.143 3.186 1.0447 6.6265 1.345 9.9658 1.8845 71.057 11.487 143.17 8.3723 214.59 15.58 45.038 4.5449 90.52 3.6555 135.55 9.9937 38.804 5.4619 77.581 9.3245 117.24 4.7888 27.958-3.198 55.112 3.8191 76.002 26.096 19.394 20.679 44.144 30.423 72.082 33.288 16.266 1.668 31.713 6.5347 46.374 14.009 43.635 22.246 51.809 71.262 17.916 106.82-9.0415 9.4863-20.186 15.743-30.948 22.752-44.588 29.038-93.279 42.273-146.44 38.659-21.038-1.4299-41.963-4.292-61.138-13.358-28.762-13.601-56.971-28.478-83.817-45.546-35.006-22.256-71.493-27.409-110.5-13.091-35.594 13.066-71.281 25.905-106.59 39.708-15.424 6.03-30.433 6.2893-45.575 1.1387-38.538-13.111-3.1211-47.442-33.249-46.574-24.049 0.6929-38.319 23.941-28.664 46.698 12.052 28.405 42.709 47.963 73.694 48.789 29.899 0.7971 55.633-11.029 80.204-25.382 26.811-15.661 52.724-14.306 78.682 0.0842 44.606 24.726 90.879 47.17 140.82 56.082 110.94 19.799 251.36 15.054 329.42-65.5 18.351-18.938 28.322-42.341 31.11-67.008 7.2641-64.276-18.265-118.04-66.59-157.75zm-4387.6 324.74c4.0246 12.356 0.1205 23.807-10.238 30.026-12.936 7.7676-19.676 4.3174-19.319-10.751 0.4632-19.568-6.4546-35.476-24.771-49.584 28.909-2.897 47.172 8.3413 54.328 30.309zm530.34-291.36c2.5266 4.0942 5.1532 8.8083 0.6188 12.601-4.6603 3.8987-12.149 7.5605-16.17 2.1289-6.0214-8.1333-15.541-12.202-21.67-20.262 17.735-8.4307 29.808-6.4812 37.221 5.532zm1411.1 289.36c-0.8987-0.0513-1.7229-1.405-2.5796-2.1868 0.9465-0.6558 1.9365-1.8787 2.8276-1.8108 0.9275 0.0708 1.76 1.3882 2.6338 2.1606-0.9641 0.6708-1.9597 1.8898-2.8818 1.837zm1664.5-713.88c53.582-19.814 135.78-55.837 254.46-52.208 30.471 0.9319 61.081-0.3314 90.981 6.1757 38.316 8.3386 76.261 18.406 112.66 33.307 25.136 10.289 49.619 30.558 56.095 57.145 5.3198 21.838 13.277 42.599 30.628 58.414 28.852 26.298 21.453 61.274-0.0972 84.887-17.362 19.024-55.764 27.188-79.282 17.427-3.7388-1.552-8.1987-2.6765-8.3682-7.5696-0.207-5.9797 4.4653-8.5133 9.3076-8.6926 38.383-1.4227 80.93-51.81 46.6-92.333-8.0801-9.5376-13.928-20.074-18.223-31.439-9.7051-25.684-27.467-42.293-52.765-52.803-53.844-22.369-109.55-34.647-168-35.105-82.04 1.871-160.86 23.362-234.91 57.173-4.5117 2.0598-9.0435 3.9725-13.388 0.702-33.109-24.929-40.902-29.459-25.704-35.08zm-578.76 76.96c7.9333 0.9291 14.148 1.5631 19.235 2.6349 22.098 12.766 47.208 16.507 71.813 20.611 111.27 18.559 146.49 15.512 221.68 4.7379 64.316-9.2159 123.07-35.216 181.71-61.356 15.378-6.8545 38.845 2.3434 45.914 18.224 2.105 4.7288-0.0806 7.7546-3.0796 10.645-5.8838 5.671-12.45 10.302-20.084 13.472-19.997 8.3024-40.251 15.877-61.407 20.622-95.001 21.309-194.21 56.995-376.77-0.0713-33.36-10.428-73.575-18.53-81.795-27.118 0.9148-1.0492 1.8418-1.821 2.7751-2.4019zm74.296 47.585c23.653 2.1688 45.478 12.792 69.253 15.162 71.33 7.1088 117.25 30.996 281.27-8.843 31.824-7.7294 95.896-22.262 122.43-41.455 8.4224-6.0929 13.611-3.745 17.941 3.9581 20.751 36.92 33.546 75.472 22.663 118.41-5.5405 21.859-14.477 41.995-29.033 59.73-14.301 17.424-25.071 12.742-76.492 8.2842-35.046-3.0378-70.396-3.5039-105.21-8.1206-571.69-75.816-615.72-254.89-1141.5-272.49-87.842-2.9418-84.016-0.6825-89.384-6.2041 3.7529-4.9098 8.3496-6.038 13.114-6.4996 66.692-6.4661 133.48-14.056 200.51-11.411 132.14 5.2137 248 19.976 434.4 75.261 46.003 13.644 93.015 23.918 139.67 35.317 55.608 13.587 87.365 34.05 140.35 38.908zm449.36 187.59c-5.6218 6.5112-11.726 9.4651-21.106 8.9053-227.05-13.549-448.57-57.516-699.27-151.99-59.489-22.419-120.35-41.176-180.34-62.305-44.086-15.527-89.515-26.655-133.75-41.426-64.949-21.688-132.42-27.146-199.54-35.21-70.638-8.4878-141.69-11.404-212.76-13.464-5.8264-0.1689-11.923 0.2129-20.275-6.3036 16.858-5.6176 30.257-10.46 44.616-8.5083 68.529 9.312 99.647-4.9664 347.84 27.557 251.17 32.914 481.7 180.31 767.03 227.38 73.416 12.109 160.22 31.086 228.61 33.07 25.156 0.7302 49.729 5.6084 74.622 8.0684 11.447 1.1309 12.159 5.1624 4.3258 14.235zm-2135.4-346.96c287.52-87.792 353.74-66.069 463.31-51.656 23.795 3.1302 46.674 11.849 67.015 30.302-10.532 3.4694-18.644 1.717-26.82-0.8586-31.522-9.9298-62.658-21.391-95.857-24.81-8.0574-0.8301-16.186-2.0607-24.23-1.757-49.3 1.8607-98.383 5.3955-147.17 13.783-118.29 20.337-158.77 24.56-280.4 70.89-19.292 7.3489-24.774 5.8418-39.125-10.353 28.097-8.6188 55.678-17.111 83.279-25.539zm-235.56 116.42c-115.65 37.565-282.43 148.77-391.93 208.39-50.644 27.574-106.34 39.323-161.6 52.777-126.69 30.846-170.47-16.581-277.28 34.205-35.519 16.888-73.186 28.299-111 38.999-34.225 9.6858-66.269 0.6467-96.28-14.248-66.666-33.088-134.34-64.146-199.96-99.379-40.444-21.715-103.51-17.082-129.42-19.894-61.644-6.689-111.63 19.05-158.65 54.901-25.867 19.719-45.528 43.889-59.905 72.714-2.0953 4.2007-5.01 8.7249-5.026 13.109-0.1788 49.092-43.23 61.914-46.856 112.5-4.1865 58.415 7.9559 110.72 62.463 144.36 15.256 9.4148 31.492 15.547 49.127 18.055 24.007 3.4146 48.048 6.5896 72.719 8.7795-30.95 9.2688-62.327 6.8022-93.705 1.7004-85.939-13.974-86.082-46.776-102.16-38.458-1.8886 0.9773-4.9324-0.8213-3.8418-2.394 9.1962-13.26-5.4293-15.884-10.252-21.883-20.45-25.438-34.533-53.296-36.687-86.303-1.9495-29.874-1.1858-59.575 7.2993-88.607 1.8957-6.4856 2.8752-13.626 7.681-18.629 99.305-103.37 92.077-135.67 180.48-165.6 149.57-50.63 232.39-28.706 325.23-9.615 55.066 11.324 107.72 32.845 163.7 39.27 47.088 5.4053 92.549 19.959 140.08 22.497 82.776 4.4214 164.7 2.8303 245.55-19.797 130.72-36.586 257.59-82.873 378.39-144.94 158.77-81.579 130.83-69.381 216.29-102.5 6.9425-2.6907 15.142-3.7119 20.691-8.1136 13.86-10.995 24.565-4.8943 36.944 3.7487-5.4742 9.0938-14.139 11.775-22.069 14.35zm128.79 99.368c-28.729 21.588-53.423 47.738-81.584 70.089-27.535 21.855-56.941 41.368-82.958 65.167-8.9695 8.2043-19.005 15.242-27.995 23.426-54.423 49.547-117.41 87.3-179.55 125.36-65.019 39.83-129.89 81.312-202.04 107.83-55.8 20.505-111.8 41.393-172.44 43.87-68.952 2.8171-102.05-0.3428-149.61-41.732-26.258-22.849-28.625-53.698-21.555-86.013 3.7102-16.96 38.425-28.969 60.515-50.184 4.4025 3.5305 3.5269 6.1658 2.5912 8.55-12.546 31.973 6.6306 59.994 26.806 71.748 76.136 44.356 116.06 18.564 137.73 15.502 94.711-13.381 183.5-45.936 269.25-87.22 76.273-36.724 99.907-57.966 150.12-88.643 71.213-43.508 134.31-98.24 202.27-146.23 18.779-13.259 37.878-26.064 56.592-39.414 32.167-22.948 19.76-26.212 45.595-21.225-9.7366 13.989-22.593 20.738-33.741 29.115zm242.71-120.79c-61.179 47.337-128.44 77.523-207.81 72.717-71.623-4.3372-79.119-49.567-141.64-84.133-66.392-36.707-134.86-40.351-205.64-15.095-28.022 9.9977-87.579 60.322-110.81 84.551-13.77 14.365-30.216 24.999-46.878 35.328-8.7184 5.4045-18.533 7.9835-29.124 6.5831-12.08-1.597-24.556-1.4647-36.252-4.4601-62.675-16.051-98.678 35.624-141.09 39.745-2.6853 0.261-5.4163 1.6582-7.978 1.3391-82.603-10.29-116.68 42.789-211.57-9.8558-32.638-18.107-50.065-78.044-118.66-114.79-63.379-33.952-72.947-117.29-175.24-148.17-29.148-8.799-58.299-12.227-87.051 2.1178-35.558 17.738-15.712 32.631-56.78 45.771-91.408 29.244-80.011 166.04 13.802 160.51 3.1772-0.1875 6.4845-2.1104 10.382 1.642-8.5655 9.2356-19.559 8.252-29.86 6.7688-77.403-11.145-99.34-111.84-16.523-189.16 25.895-24.177 55.008-18.48 82.182-42.588 35.779-31.744 76.152-30.92 117.8-15.12 21.55 8.1742 41.604 19.22 57.095 37.432 10.669 12.544 25.084 20.433 40.072 27.109 51.14 22.777 22.187 56.512 120.73 100.98 22.359 10.089 43.192 22.266 63.365 36.056 60.156 41.121 124.9 56.484 196.43 34.713 29.856-9.0872 59.255-19.005 87.259-32.951 103.42-51.506 121.14 2.2528 251.63-93.46 36.914-27.075 77.799-44.303 120.64-56.259 24.283-6.777 50.998-3.6667 76.44 2.5676 46.512 11.398 94.883 17.381 135.24 46.388 17.127 12.311 35.932 21.431 54.193 31.694 23.211 13.045 48.069 17.211 73.755 19.911 39.704 4.1747 79.389 7.6858 119.33 3.3463 1.7224-0.1874 3.5923 0.9808 7.5466 2.1591-2.5737 3.4757-3.4687 5.4478-4.9829 6.6195zm-69.161-22.458c6.0775-13.347 9.894-16.112 69.378-37.699 25.09-9.1049 48.256-24.073 76.839-23.386-41.342 18.594-67.983 29.005-102.16 52.127-13.577 9.1861-27.97 12.661-44.061 8.9579zm77.178-8.369c45.51-23.693 91.536-44.966 143.21-49.772-47.262 18.262-92.429 42.37-143.21 49.772zm122.82-79.814c-72.301 11.844-139.33 38.625-203.21 73.614-11.106 6.0829-19.681 14.482-34.563 12.396-25.118-3.5208-51.003-2.9089-74.665-21.911 17.445-11.232 34.272-14.613 50.17-19.655 63.996-20.298 129.59-33.495 195.94-43.794 57.232-8.8835 197.77-38.906 212.31-17.617-49.737 2.867-97.966 9.1022-145.98 16.967zm240.22 455.37c-0.9707 11.779-10.463 12.954-17.823 11.178-26.193-6.322-52.398-12.654-75.024-29.075-44.008-31.939-56.541-75.951-54.654-127.97 2.1082-58.144 30.88-103.91 63.066-148.64 3.6348-5.0504 6.9226-11.752 14.959-12.81 2.0447 6.6051-2.9778 10.291-5.9795 14.174-43.195 55.881-46.547 119.84-35.672 185.59 7.4341 44.947 52.94 86.478 98.092 93.545 8.8528 1.3856 13.829 4.3827 13.036 14.002zm25.986-300.83c-5.0266 21.705-9.8086 43.601-16.924 64.663-30.552 90.439-17.592 178.87-17.813 184.01-0.3435 7.9312 5.6333 18.42-0.8477 23.148-7.6301 5.5664-16.367-2.5869-23.802-6.6196-38.821-21.056-58.907-54.335-62.228-97.948-0.7661-10.062-0.113-20.233-0.113-30.354-6.2236-39.77 7.6177-75.126 27.467-107.75 11.386-18.713 33.258-26.822 52.644-36.094 8.3989-4.0172 17.99-5.8817 27.242-7.699 14.123-2.7741 17.632 0.5772 14.374 14.644zm1.2058-31.49c-24.316 2.1226-44.598 13.942-65.064 25.573-0.9534 0.5416-2.4824 0.0693-5.2639 0.0693 0.49-8.2383 6.0898-9.9349 10.751-12.271 18.627-9.3351 34.566-23.594 54.673-30.107 4.4243-1.4335 11.354-5.756 12.917 2.7417 1.022 5.5542-0.0715 13.3-8.0131 13.994zm-29.704-17.872c9.4946-18.82 29.228-17.445 44.255-25.421 1.7556-0.932 9.834 5.6704 0.938 9.0106-15.004 5.6322-30.116 10.973-45.193 16.41zm44.881 264.42c-15.114-48.387 26.465-144.71 36.508-236.02 0.2866-2.6101 0.8665-5.42 5.2346-6.868 12.443 28.57 13.907 58.015 7.877 88.212-6.2307 31.204-15.874 61.473-27.279 91.054-8.0168 20.793-11.671 42.914-22.341 63.626zm159.19 176.1c23.417 67.768-2.7151 121.2-49.209 168.56-23.669 24.109-54.183 37.541-83.581 52.606-4.0884 2.0955-9.0464 2.5955-13.667 3.5056-3.52 0.6926-7.3091-4.5718-3.0957-8.3938 10.67-9.678 35.367-3.0635 61.082-29.188 24.755-25.15 86.73-67.666 68.832-172.83-3.0159-17.72-11.867-32.753-31.231-39.1-17.474-5.728-19.55-21.538-23.37-39.045 37.479 9.3388 62.261 29.22 74.24 63.885zm-57.363-19.805c16.577 10.528 24.228 21.394 26.254 34.949 7.2673 48.619 2.0984 94.525-32.564 133.01-13.99 15.532-28.611 30.344-48.553 39.581 11.431-20.68 28.831-37.597 37.424-59.8 20.173-52.121 28.381-79.596 17.44-147.74zm-13.462-304.97c-11.408 32.565-23.051 65.043-36.844 96.692-14.438 33.131-19.349 67.344-13.423 103.17 5.5862 33.772 16.531 36.581 42.685 98.234 9.1506 21.572 12.907 43.938 11.078 69.875-7.761-6.5989-7.0371-13.945-9.2466-20.048-26.3-72.64-36.344-47.071-54.908-105.32-16.134-50.628-12.401-99.625 7-148.54 13.72-34.59 25.944-69.818 30.502-107.08 8.3599-68.361-17.764-116.9-47.231-137.32-82.21-56.952-153.23-45.61-168.72-47.063-1.2681-0.1191-2.4792-0.844-5.6074-1.9833 11.85-8.7722 25.285-6.132 36.778-7.6205 57.995-7.5095 132.46-7.722 177.13 30.525 20.488 17.54 29.517 41.641 36.234 66.622 9.9723 37.082 7.2091 73.754-5.435 109.85zm2.6956-167.18c-3.6938 0.0425-6.5154-2.2941-7.3955-5.837-0.9797-3.9425 1.6338-6.1829 5.0122-7.601 13.107-5.5002 25.76-12.863 39.398-16.185 69.562-16.946 138.86-34.172 211.35-36.321 103.45-3.0671 149.84-6.7709 246.87 9.1235 40.739 6.6735 80.975 15.838 121.52 23.419 22.169 4.1447 41.883 14.928 63.399 20.835 61.435 16.867 121.27 38.508 179.97 63.229 2.3501 0.9897 4.3164 2.8912 8.6252 5.8577-10.071 5.2119-17.28 1.5593-24.136-0.2113-26.216-6.7708-52.414-13.711-78.317-21.581-235.74-71.625-518.64-107.34-754.33-36.234-3.8022 1.1471-7.9604 1.4603-11.96 1.5062zm1556 368.7c-13.299 18.393-33.613 29.302-52.5 41.063-25.28 15.741-51.477 29.918-80.172 38.908-29.396 9.2087-82.674 43.096-177.14 47.972-47.811 2.4683-96.14-1.6072-142.54-15.807-62.764-19.208-126.3-36.231-187.43-60.333-69.79-27.516-292.71-143.27-334.44-166.16-90.443-49.608-185.6-88.686-283.27-121.38-76.059-25.456-192.67-47.206-265.74-56.849-8.2246-1.0853-12.25-4.3464-13.703-11.902-6.9187-35.998-11.469-34.764 15.19-36.348 95.794-5.6909 190.21 7.1366 285.1 17.682 83.099 9.2351 161.04 35.56 239.53 60.583 223.23 71.166 293.53 114.34 517.48 166.12 58.3 13.478 227.7 46.223 249.07 48.203 40.407 3.7424 80.829 7.3303 121.22 11.224 4.2939 0.4141 10.616-1.1138 11.919 5.0024 1.1755 5.5215-4.24 7.9248-8.0125 10.541-35.279 24.47-73.678 42.959-113.83 57.692-62.308 22.863-86.634 30.958-195.41 20.308-38.295-3.7495-76.706-8.9385-113.66-20.938-3.8569-1.2522-8.3096-1.5168-11.563-3.6479-29.284-19.182-63.748-25.829-95.374-39.369-69.811-29.886-137.93-63.032-204.56-99.287-26.875-14.624-55.43-25.284-83.21-37.7-84.956-37.969-290.6-148.68-541.69-175.69-16.135-1.7358-32.293-1.8203-52.893-0.269 15.141 9.3706 27.828 8.0277 39.581 8.9209 144.56 10.986 332.9 75.168 468.69 138.57 50.85 23.743 101.17 48.794 153.28 69.919 31.941 12.948 105.21 62.465 216.84 106.1 79.057 30.9 109.75 66.498 292.52 71.967 88.828 2.6577 164.85-32.445 238.04-76.331 43.407-26.027 79.614-60.446 106.7-103.76 26.18-41.867 33.43-85.98 19.383-134.12-13.81-47.33-46.542-97.54-94.315-115.09-41.636-15.3-84.341-25.425-128.7-26.707-34.897-1.0088-66.101-13.984-96.699-28.278-23.312-10.891-38.206-30.612-42.53-56.222-6.9724-41.297-31.864-65.873-69.95-79.208-45.248-15.841-86.578-19.534-126.43 7.4126-22.569 15.259-30.746 36.598-25.641 63.497 1.2659 6.6703 6.6865 16.024-2.1646 20.16-8.2505 3.855-15-3.6097-21.066-8.9185-16.591-14.521-19.394-34.911-8.1858-54.964 13.238-23.684 35.404-35.264 59.8-42.304 47.312-13.651 95.774-13.505 142.28 0.8385 38.023 11.728 69.095 35.776 89.578 71.92 39.873 70.36 124.01 57.825 180.95 80.357 33.971 13.445 67.147 27.262 97.539 48.822 21.894 15.532 43.04 31.043 57.766 53.062 57.51 85.998 63.247 176.31-29.622 304.75zm825.3 161.53c-3.9844 70.877-62.301 112.63-130.51 131.32-62.834 17.222-125.83 16.252-189.44 8.9236-29.269-3.3723-56.688-13.34-83.349-25.16-24.112-10.69-47.951-21.97-71.426-34.144-35.854-18.594-71.832-15.903-106.17 5.3318-14.636 9.0503-30.492 14.787-47.206 17.918-28.321 5.3047-58.136-8.1189-73.638-32.32-2.9502-4.6047-5.9995-9.1199-5.6597-14.896 0.3755-6.3662 1.7671-12.662 8.9316-14.283 6.2749-1.4194 7.0859 4.634 9.4341 8.5735 19.952 33.483 49.672 42.832 87.084 26.911 28.703-12.215 58.007-22.498 87.931-31.343 44.74-13.224 85.814-8.3416 126.51 16.056 38.891 23.315 80.998 40.906 125.76 50.481 26.309 5.6272 53.179 4.228 78.448-3.5273 37.448-11.493 74.641-24.423 108.4-45.211 31.408-19.341 43.932-49.633 44.234-84.139 0.2505-28.537-20.141-48.143-40.11-65.54-14.345-12.497-31.385-19.733-51.935-19.545-30.774 0.2808-58.517-9.0635-79.36-33.797-12.185-14.46-29.292-19.078-47.175-20.508-89.159-7.1284-36.549 11.174-194.57-4.2661-87.88-8.5867-234.93-12.852-307.36-25.871-26.741-4.8059-26.699-5.0374-15.141-28.51 0.8975-1.8235 2.104-3.5652 2.626-5.4915 4.0151-14.831 14.596-17.049 28.2-16.471 220.68 9.3774 411.85-2.2412 547.32 40.9 53.452 17.022 106.49 38.622 145.22 81.824 29.163 32.525 45.517 70.993 42.944 116.78z"/> <path d="m2411.8 467.42c7.4155 4.4464 17.917 5.7509 24.278-2.3542 5.79-7.3776-3.5076-11.485-6.5991-16.958-16.016-28.357-27.963-64.641-11.198-92.253 2.822-4.6478 5.9451-9.9792 12.619-7.1484 13.645 5.7887-11.123 24.22 2.8162 74.44 5.2312 18.846 28.483 45.247 40.044 29.471 10.321-14.082-30.915-11.231-24.723-78.893 1.123-12.274 7.2029-18.315 19.795-17.837 38.438 1.4614 56.188-31.611 63.533 5.8067 3.8857 19.794 1.1958 39.062-5.6765 57.912-7.3394 20.13-6.8806 21.219 10.046 32.789 2.8052 1.9175 5.3994 4.3953 8.7832 1.3033 2.3086-2.1091 2.5942-5.3298 1.2129-7.4858-13.555-21.155 10.785-41.9 4.989-66.817-3.6733-15.791 2.9104-25.561 14.996-34.06 9.5015-6.6815 12.554-6.6075 15.39 4.4099 5.8796 22.837 0.0723 44.227-10.135 64.683-4.5315 9.0834-21.583 7.1633-19.168 20.639 1.8772 10.476 10.388 10.518 27.775 17.449 9.1406 3.643 16.054 0.6192 20.556-7.5729 13.22-24.05 22.019-49.525 21.918-77.268-0.0327-8.9523-1.3965-18.311-12.741-27.276-1.604 18.621 3.6152 34.069-1.5195 48.823-4.905 14.094-7.3794 29.292-18.768 40.422-1.6431-16.295 6.4268-30.092 9.718-44.966 4.1045-18.551 3.2549-36.427-3.9497-53.764-5.1948-12.5-19.784-19.318-25.176-11.538-10.915 15.749-23.39 11.085-35.188 5.0884-14.165-7.1992-25.793-5.41-37.451 4.1045-8.9458 7.3004-19.016 9.1671-30.508 7.2136-12-2.0401-23.973-3.6559-35.812-6.8968-13.358-3.6572-16.332-0.2588-22.027 12.866-12.571 28.969-16.386 58.392-8.158 89.138 0.416 1.5541-0.8833 3.5671-2.2212 8.3742-32-36.364-24.229-70.996-3.1482-107.06-18.942 10.404-25.428 28.218-29.76 46.343-10.116 42.328 16.005 71.212 45.456 88.871z"/> </svg>